<?xml version="1.0" encoding="utf-8"?>
<!-- Generator: Adobe Illustrator 18.0.0, SVG Export Plug-In . SVG Version: 6.00 Build 0)  -->
<svg xmlns="http://www.w3.org/2000/svg" version="1.1" id="Layer_1" x="0px" y="0px" viewBox="0 792 100 100" enable-background="new -0.061 792 100 100" space="preserve">



	
	<g extraneous="self">
		<path fill="#FFFFFF" d="M100,811.113c-3.67,1.631-7.624,2.735-11.768,3.229c4.231-2.536,7.479-6.55,9.011-11.336    c-3.962,2.347-8.345,4.053-13.014,4.969c-3.737-3.981-9.061-6.469-14.956-6.469c-11.313,0-20.49,9.174-20.49,20.49    c0,1.606,0.18,3.171,0.527,4.669c-17.025-0.852-32.123-9.011-42.232-21.409c-1.764,3.029-2.771,6.544-2.771,10.301    c0,7.108,3.618,13.383,9.113,17.056c-3.357-0.108-6.522-1.029-9.28-2.563l-0.006,0.261c0,9.926,7.066,18.204,16.435,20.091    c-1.714,0.466-3.526,0.716-5.393,0.716c-1.321,0-2.602-0.13-3.856-0.369c2.602,8.145,10.176,14.065,19.142,14.235    c-7.016,5.493-15.849,8.767-25.451,8.767c-1.653,0-3.285-0.097-4.888-0.289c9.066,5.809,19.836,9.197,31.41,9.197    c37.685,0,58.298-31.221,58.298-58.298c0-0.888-0.022-1.773-0.058-2.649C93.78,818.831,97.259,815.222,100,811.113L100,811.113z"/>
	</g>
</svg>
